<?xml version="1.0" encoding="iso-8859-1"?>
<!-- Uploaded to: SVG Repo, www.svgrepo.com, Generator: SVG Repo Mixer Tools -->
<svg height="800px" width="800px" version="1.1" id="Layer_1" xmlns="http://www.w3.org/2000/svg" xmlns:xlink="http://www.w3.org/1999/xlink" 
	 viewBox="0 0 464 464" xml:space="preserve">
<path style="fill:#FDECDB;" d="M272,96.003v96c0,26.48-21.52,48-48,48H104l-44.8,33.6c-21.12,15.84-51.2,0.8-51.2-25.6v-152
	c0-26.48,21.52-48,48-48h168C250.48,48.003,272,69.523,272,96.003z"/>
<path d="M40.016,288.051c-6.096,0-12.216-1.408-17.912-4.256C8.472,276.979,0,263.259,0,248.003v-152c0-30.872,25.128-56,56-56h168
	c30.872,0,56,25.128,56,56v96c0,30.872-25.128,56-56,56H106.664l-42.664,32C56.896,285.331,48.496,288.051,40.016,288.051z
	 M56,56.003c-22.056,0-40,17.944-40,40v152c0,9.296,4.952,17.328,13.256,21.488c8.296,4.152,17.696,3.296,25.152-2.28l44.8-33.6
	c1.384-1.04,3.064-1.6,4.8-1.6h120c22.056,0,40-17.944,40-40V96.003c0-22.056-17.944-40-40-40H56z"/>
<path style="fill:#FDECDB;" d="M456,231.923v152c0,26.4-30.08,41.44-51.2,25.6l-44.8-33.6H240c-26.48,0-48-21.44-48-48v-96
	c0-26.48,21.52-48,48-48h168C434.48,183.923,456,205.443,456,231.923z"/>
<path d="M423.984,423.971c-8.48,0-16.88-2.72-23.984-8.048l-42.664-32H240c-30.872,0-56-25.128-56-56v-96c0-30.872,25.128-56,56-56
	h168c30.872,0,56,25.128,56,56v152c0,15.256-8.472,28.976-22.104,35.792C436.2,422.563,430.08,423.971,423.984,423.971z
	 M240,191.923c-22.056,0-40,17.944-40,40v96c0,22.056,17.944,40,40,40h120c1.736,0,3.416,0.56,4.8,1.6l44.8,33.6
	c7.448,5.568,16.84,6.432,25.152,2.28c8.296-4.152,13.248-12.184,13.248-21.48v-152c0-22.056-17.944-40-40-40L240,191.923
	L240,191.923z"/>
<path style="fill:#DF5349;" d="M331.84,171.923c22.88,21.52,23.28,57.6,1.2,79.68l-66.48,66.56c-13.84,13.84-36.32,13.76-50.08-0.16
	l-66.88-67.68c-22.08-22.08-21.68-58.16,1.2-79.68c22.16-20.88,57.52-18.72,78.96,2.8l12.24,12.24l10.88-10.96
	C274.4,153.203,309.68,151.043,331.84,171.923z"/>
<path d="M337.328,166.107c-24.752-23.32-65.16-21.968-90.128,2.984l-4.016,4.04c-0.384-0.064-0.72-0.264-1.112-0.272
	c-0.432,0.024-0.84,0.224-1.272,0.304l-5.376-5.376c-24.896-24.992-65.312-26.32-90.112-2.976
	c-12.608,11.864-19.704,27.936-19.968,45.248c-0.264,17.344,6.344,33.656,18.568,45.88l66.872,67.432
	c8.176,8.28,19.072,12.632,30.704,12.632c0.04,0,0.08,0,0.128,0c11.56,0,22.432-4.256,30.616-12.432l66.472-66.432
	c12.256-12.256,18.864-28.512,18.6-45.856C357.032,193.971,349.936,177.963,337.328,166.107z M327.376,245.947l-66.472,66.312
	c-5.152,5.152-12.008,7.744-19.296,7.744c-0.032,0-0.056,0-0.08,0c-7.336,0-14.208-2.664-19.368-7.872l-66.904-67.584
	c-9.168-9.168-14.12-21.312-13.912-34.296c0.192-12.944,5.504-24.928,14.936-33.816c8.792-8.272,20.24-12.352,31.864-12.352
	c12.904,0,26.032,5.056,35.952,15.008l4.984,4.984l-20.432,25.264c-2.784,3.44-2.248,8.48,1.184,11.248
	c3.456,2.776,8.488,2.24,11.248-1.184l20.728-25.624l19.632,25.48c1.576,2.048,3.944,3.12,6.344,3.12
	c1.704,0,3.424-0.536,4.872-1.664c3.504-2.696,4.152-7.72,1.456-11.216l-19.44-25.232l3.848-3.88
	c18.88-18.88,49.32-20.064,67.824-2.632c0,0.008,0,0.008,0,0.008c9.44,8.872,14.744,20.888,14.936,33.832
	C341.504,224.571,336.552,236.779,327.376,245.947z"/>
<path d="M136,432.003H80c-22.056,0-40-17.944-40-40v-48c0-4.424,3.576-8,8-8s8,3.576,8,8v48c0,13.232,10.768,24,24,24h56
	c4.424,0,8,3.576,8,8S140.424,432.003,136,432.003z"/>
<path d="M104.008,456.003c-2.44,0-4.832-1.104-6.408-3.2c-2.656-3.528-1.936-8.544,1.6-11.192l23.464-17.6L99.2,406.403
	c-3.536-2.648-4.256-7.664-1.6-11.192c2.648-3.536,7.664-4.248,11.192-1.6l32,24c2.016,1.504,3.2,3.88,3.2,6.4s-1.184,4.888-3.2,6.4
	l-32,24C107.36,455.483,105.68,456.003,104.008,456.003z"/>
<path d="M432,128.003c-4.424,0-8-3.576-8-8v-48c0-13.232-10.768-24-24-24h-56c-4.424,0-8-3.576-8-8s3.576-8,8-8h56
	c22.056,0,40,17.944,40,40v48C440,124.427,436.424,128.003,432,128.003z"/>
<path d="M375.992,72.003c-1.672,0-3.352-0.52-4.792-1.6l-32-24c-2.016-1.512-3.2-3.888-3.2-6.4s1.184-4.888,3.2-6.4l32-24
	c3.528-2.656,8.536-1.944,11.192,1.6c2.656,3.528,1.936,8.544-1.6,11.192l-23.456,17.608l23.464,17.6
	c3.536,2.648,4.256,7.664,1.6,11.192C380.832,70.899,378.432,72.003,375.992,72.003z"/>
<circle style="fill:#DF5349;" cx="72" cy="136.003" r="16"/>
<path d="M72,160.003c-13.232,0-24-10.768-24-24s10.768-24,24-24s24,10.768,24,24S85.232,160.003,72,160.003z M72,128.003
	c-4.416,0-8,3.584-8,8s3.584,8,8,8s8-3.584,8-8S76.416,128.003,72,128.003z"/>
<circle style="fill:#DF5349;" cx="136" cy="136.003" r="16"/>
<path d="M136,160.003c-13.232,0-24-10.768-24-24s10.768-24,24-24s24,10.768,24,24S149.232,160.003,136,160.003z M136,128.003
	c-4.416,0-8,3.584-8,8s3.584,8,8,8s8-3.584,8-8S140.416,128.003,136,128.003z"/>
<circle style="fill:#DF5349;" cx="200" cy="136.003" r="16"/>
<path d="M200,160.003c-13.232,0-24-10.768-24-24s10.768-24,24-24s24,10.768,24,24S213.232,160.003,200,160.003z M200,128.003
	c-4.416,0-8,3.584-8,8s3.584,8,8,8s8-3.584,8-8S204.416,128.003,200,128.003z"/>
<path style="fill:#DF5349;" d="M344,296.483c8.8,0,16,7.2,16,16c0,8.88-7.2,16-16,16s-16-7.12-16-16
	C328,303.683,335.2,296.483,344,296.483z"/>
<path d="M344,336.483c-13.232,0-24-10.768-24-24s10.768-24,24-24s24,10.768,24,24S357.232,336.483,344,336.483z M344,304.483
	c-4.416,0-8,3.584-8,8s3.584,8,8,8s8-3.584,8-8S348.416,304.483,344,304.483z"/>
<path style="fill:#DF5349;" d="M408,296.483c8.8,0,16,7.2,16,16c0,8.88-7.2,16-16,16s-16-7.12-16-16
	C392,303.683,399.2,296.483,408,296.483z"/>
<path d="M408,336.483c-13.232,0-24-10.768-24-24s10.768-24,24-24s24,10.768,24,24S421.232,336.483,408,336.483z M408,304.483
	c-4.416,0-8,3.584-8,8s3.584,8,8,8s8-3.584,8-8S412.416,304.483,408,304.483z"/>
</svg>